<svg width="78" height="78" viewBox="0 0 78 78" fill="none" xmlns="http://www.w3.org/2000/svg">
<rect width="78" height="78" rx="14" fill="black"/>
<rect x="13" y="12" width="51" height="54" fill="#F2F2F2"/>
<path d="M61.8571 7C66.9 7 71 11.1 71 16.1429V61.8571C71 66.9 66.9 71 61.8571 71H16.1429C11.1 71 7 66.9 7 61.8571V16.1429C7 11.1 11.1 7 16.1429 7H61.8571ZM31.8143 16.1429C27.1 16.1429 23.2714 19.9714 23.2714 24.6857C23.2714 27.6857 24.8143 30.3143 27.1571 31.8429C24.8143 33.3714 23.2714 36 23.2714 39C23.2714 42 24.8143 44.6429 27.1571 46.1571C24.8143 47.6857 23.2714 50.3143 23.2714 53.3143C23.2714 58.0429 27.1429 61.8571 31.8571 61.8571C36.6 61.8571 40.5143 58.0143 40.5143 53.2429V45.2857C42.0286 46.6857 44.0571 47.5429 46.2857 47.5429H46.4429C51.1571 47.5429 54.9857 43.7143 54.9857 39C54.9857 36 53.4429 33.3571 51.1 31.8429C53.4429 30.3143 54.9857 27.6857 54.9857 24.6857C54.9857 19.9714 51.1571 16.1429 46.4429 16.1429H31.8143ZM37.7571 47.5429V53.2429C37.7571 56.4714 35.1 59.1 31.8571 59.1C28.6571 59.1 26.0429 56.5 26.0429 53.3143C26.0429 50.1286 28.6286 47.5429 31.8 47.5429H37.7571ZM37.7571 33.2143V44.7714H31.8C28.6143 44.7571 26.0429 42.1714 26.0429 38.9857C26.0429 35.8 28.6286 33.2 31.8286 33.2H37.7714L37.7571 33.2143ZM46.4429 33.2143C49.6286 33.2143 52.2286 35.8 52.2286 39C52.2286 42.2 49.6429 44.7857 46.4429 44.7857H46.2857C43.1 44.7857 40.5143 42.2 40.5143 39C40.5143 35.8 43.1 33.2143 46.2857 33.2143H46.4429ZM37.7571 30.4571H31.8143C28.6286 30.4571 26.0286 27.8714 26.0286 24.6857C26.0286 21.5 28.6143 18.9 31.8143 18.9H37.7571V30.4571ZM46.4429 18.9C49.6286 18.9 52.2286 21.4857 52.2286 24.6857C52.2286 27.8857 49.6429 30.4571 46.4429 30.4571H40.5143V18.9H46.4429Z" fill="black"/>
</svg>
