<svg width="94" height="94" viewBox="0 0 94 94" fill="none" xmlns="http://www.w3.org/2000/svg">
<path d="M73.7202 19.7878C66.6104 12.7472 57.0059 8.80226 47 8.81252H46.6071C36.5474 8.91602 26.9349 12.985 19.8581 20.1353C12.7813 27.2857 8.81197 36.9398 8.8125 47C8.8125 62.7891 18.5723 76.0299 34.2806 81.5781C36.0523 82.2027 37.948 82.3934 39.8086 82.1342C41.6693 81.875 43.4407 81.1735 44.9742 80.0884C46.5078 79.0034 47.7588 77.5664 48.6224 75.8981C49.486 74.2297 49.937 72.3786 49.9375 70.5C49.9375 68.9419 50.5565 67.4475 51.6582 66.3458C52.76 65.244 54.2544 64.625 55.8125 64.625H72.7802C75.4456 64.6379 78.0352 63.7388 80.1191 62.0771C82.203 60.4153 83.6559 58.0908 84.2365 55.4894C84.8931 52.5985 85.2122 49.6413 85.1875 46.6769C85.1501 41.6591 84.1173 36.6987 82.1488 32.083C80.1804 27.4673 77.3155 23.2882 73.7202 19.7878ZM78.4937 54.1969C78.2019 55.4929 77.4767 56.6505 76.4378 57.4784C75.3989 58.3063 74.1086 58.7549 72.7802 58.75H55.8125C52.6962 58.75 49.7076 59.988 47.504 62.1915C45.3004 64.3951 44.0625 67.3837 44.0625 70.5C44.0611 71.4384 43.835 72.3628 43.403 73.1959C42.9711 74.029 42.3458 74.7464 41.5797 75.2883C40.8135 75.8301 39.9287 76.1805 38.9993 76.3102C38.0699 76.4398 37.1229 76.345 36.2377 76.0335C22.9455 71.3446 14.6875 60.2188 14.6875 47C14.687 38.4878 18.0455 30.3192 24.0332 24.269C30.0209 18.2187 38.1541 14.7755 46.6659 14.6875H46.9963C55.5084 14.7206 63.6665 18.0979 69.7112 24.0911C75.7559 30.0843 79.2029 38.2131 79.3088 46.7246C79.3307 49.2379 79.0621 51.7453 78.5084 54.1969H78.4937ZM51.4062 27.9063C51.4062 28.7777 51.1478 29.6296 50.6637 30.3542C50.1795 31.0789 49.4913 31.6436 48.6862 31.9771C47.8811 32.3106 46.9951 32.3979 46.1404 32.2279C45.2857 32.0578 44.5005 31.6382 43.8843 31.022C43.2681 30.4057 42.8484 29.6206 42.6784 28.7659C42.5084 27.9112 42.5957 27.0252 42.9292 26.2201C43.2627 25.4149 43.8274 24.7268 44.552 24.2426C45.2766 23.7584 46.1285 23.5 47 23.5C48.1686 23.5 49.2894 23.9642 50.1157 24.7906C50.942 25.6169 51.4062 26.7377 51.4062 27.9063ZM35.25 36.7188C35.25 37.5902 34.9916 38.4421 34.5074 39.1667C34.0232 39.8914 33.3351 40.4561 32.5299 40.7896C31.7248 41.1231 30.8389 41.2104 29.9841 41.0404C29.1294 40.8703 28.3443 40.4507 27.7281 39.8345C27.1118 39.2182 26.6922 38.4331 26.5222 37.5784C26.3521 36.7237 26.4394 35.8377 26.7729 35.0326C27.1064 34.2274 27.6712 33.5393 28.3958 33.0551C29.1204 32.5709 29.9723 32.3125 30.8438 32.3125C32.0124 32.3125 33.1331 32.7767 33.9594 33.6031C34.7858 34.4294 35.25 35.5502 35.25 36.7188ZM35.25 57.2813C35.25 58.1527 34.9916 59.0047 34.5074 59.7293C34.0232 60.4539 33.3351 61.0186 32.5299 61.3521C31.7248 61.6856 30.8389 61.7729 29.9841 61.6029C29.1294 61.4328 28.3443 61.0132 27.7281 60.397C27.1118 59.7807 26.6922 58.9956 26.5222 58.1409C26.3521 57.2862 26.4394 56.4002 26.7729 55.5951C27.1064 54.7899 27.6712 54.1018 28.3958 53.6176C29.1204 53.1334 29.9723 52.875 30.8438 52.875C32.0124 52.875 33.1331 53.3392 33.9594 54.1656C34.7858 54.9919 35.25 56.1127 35.25 57.2813ZM67.5625 36.7188C67.5625 37.5902 67.3041 38.4421 66.8199 39.1667C66.3357 39.8914 65.6476 40.4561 64.8424 40.7896C64.0373 41.1231 63.1514 41.2104 62.2966 41.0404C61.4419 40.8703 60.6568 40.4507 60.0406 39.8345C59.4243 39.2182 59.0047 38.4331 58.8347 37.5784C58.6646 36.7237 58.7519 35.8377 59.0854 35.0326C59.4189 34.2274 59.9837 33.5393 60.7083 33.0551C61.4329 32.5709 62.2848 32.3125 63.1562 32.3125C64.3249 32.3125 65.4456 32.7767 66.2719 33.6031C67.0983 34.4294 67.5625 35.5502 67.5625 36.7188Z" fill="black"/>
</svg>
