<svg width="78" height="78" viewBox="0 0 78 78" fill="none" xmlns="http://www.w3.org/2000/svg">
<g clip-path="url(#clip0_3104_1454)">
<path d="M13.8125 0H64.1875C71.825 0 78 6.33333 78 14.1667V63.8333C78 71.6667 71.825 78 64.1875 78H13.8125C6.175 78 0 71.6667 0 63.8333V14.1667C0 6.33333 6.175 0 13.8125 0Z" fill="black"/>
<path d="M37.7 46.6665H25.61L23.14 54.4998C23.075 54.7998 22.815 54.9998 22.5225 54.9665H16.4125C16.055 54.9665 15.9575 54.7665 16.055 54.3665L26.52 23.4665C26.6175 23.1331 26.715 22.7665 26.845 22.3665C26.975 21.6665 27.04 20.9331 27.04 20.1998C27.0075 20.0331 27.1375 19.8665 27.3 19.8331H35.7175C35.9775 19.8331 36.1075 19.9331 36.14 20.0998L48.0025 54.4331C48.1 54.7998 48.0025 54.9665 47.6775 54.9665H40.885C40.6575 54.9998 40.43 54.8331 40.365 54.5998L37.7 46.6665ZM27.495 39.8998H35.75C35.555 39.1998 35.295 38.3665 35.0025 37.4998C34.71 36.5998 34.4175 35.6331 34.125 34.6331C33.8 33.5998 33.5075 32.5998 33.1825 31.5665C32.8575 30.5331 32.565 29.5665 32.305 28.5998C32.045 27.6665 31.8175 26.7998 31.59 25.9998H31.525C31.2325 27.4331 30.875 28.8665 30.42 30.2998C29.9325 31.8998 29.445 33.5665 28.925 35.2331C28.47 36.9331 27.9825 38.4998 27.495 39.8998ZM55.25 25.6665C54.1775 25.6998 53.1375 25.2665 52.3575 24.4998C51.61 23.6665 51.22 22.5665 51.2525 21.4331C51.22 20.2998 51.6425 19.2331 52.4225 18.4665C53.2025 17.6998 54.2425 17.2998 55.315 17.2998C56.5825 17.2998 57.5575 17.6998 58.2725 18.4665C58.9875 19.2665 59.3775 20.3331 59.345 21.4331C59.3775 22.5665 58.9875 23.6665 58.2075 24.4998C57.46 25.2998 56.355 25.7331 55.25 25.6665ZM51.61 54.5998V28.9331C51.61 28.5998 51.74 28.4665 52.0325 28.4665H58.4675C58.76 28.4665 58.89 28.6331 58.89 28.9331V54.5998C58.89 54.9665 58.76 55.1331 58.4675 55.1331H52.0975C51.7725 55.1331 51.61 54.9331 51.61 54.5998Z" fill="#F2F2F2"/>
</g>
<defs>
<clipPath id="clip0_3104_1454">
<rect width="78" height="78" fill="white"/>
</clipPath>
</defs>
</svg>
