<svg width="94" height="94" viewBox="0 0 94 94" fill="none" xmlns="http://www.w3.org/2000/svg">
<path d="M83.4654 26.9404L67.0595 10.5308C66.5139 9.98511 65.8662 9.55224 65.1533 9.25691C64.4405 8.96158 63.6764 8.80957 62.9048 8.80957C62.1331 8.80957 61.3691 8.96158 60.6562 9.25691C59.9433 9.55224 59.2956 9.98511 58.75 10.5308L13.4721 55.8124C12.9242 56.3559 12.4898 57.003 12.1942 57.7159C11.8985 58.4289 11.7476 59.1934 11.75 59.9652V76.3749C11.75 77.933 12.369 79.4273 13.4708 80.5291C14.5726 81.6309 16.0669 82.2499 17.625 82.2499H34.0346C34.8064 82.2523 35.571 82.1013 36.284 81.8057C36.9969 81.5101 37.644 81.0757 38.1875 80.5277L83.4654 35.2499C84.0111 34.7043 84.444 34.0566 84.7393 33.3437C85.0346 32.6308 85.1866 31.8668 85.1866 31.0951C85.1866 30.3235 85.0346 29.5594 84.7393 28.8466C84.444 28.1337 84.0111 27.486 83.4654 26.9404ZM18.8404 58.7499L49.9375 27.6527L56.0659 33.7811L24.9688 64.8745L18.8404 58.7499ZM17.625 65.8402L28.1596 76.3749H17.625V65.8402ZM35.25 75.1595L29.1217 69.0311L60.2188 37.934L66.3471 44.0624L35.25 75.1595ZM70.5 39.9095L54.0904 23.4999L62.9029 14.6874L79.3125 31.0933L70.5 39.9095Z" fill="black"/>
</svg>
