<svg width="78" height="78" viewBox="0 0 78 78" fill="none" xmlns="http://www.w3.org/2000/svg">
<g clip-path="url(#clip0_3104_1444)">
<path d="M13.8125 0H64.1875C71.825 0 78 6.33333 78 14.1667V63.8333C78 71.6667 71.825 78 64.1875 78H13.8125C6.175 78 0 71.6667 0 63.8333V14.1667C0 6.33333 6.175 0 13.8125 0Z" fill="black"/>
<path d="M17.55 54.7002V20.4002C17.55 20.1668 17.6475 20.0335 17.875 20.0335C18.4275 20.0335 18.9475 20.0335 19.695 20.0002C20.475 19.9668 21.2875 19.9668 22.165 19.9335C23.0425 19.9002 23.985 19.9002 24.9925 19.8668C26 19.8335 26.975 19.8335 27.95 19.8335C30.615 19.8335 32.825 20.1668 34.645 20.8668C36.27 21.4335 37.765 22.3668 39 23.6002C40.04 24.6668 40.8525 25.9668 41.3725 27.4002C41.86 28.8002 42.12 30.2335 42.12 31.7335C42.12 34.6002 41.47 36.9668 40.17 38.8335C38.87 40.7002 37.05 42.1002 34.9375 42.9002C32.7275 43.7335 30.29 44.0335 27.625 44.0335C26.845 44.0335 26.325 44.0335 26 44.0002C25.675 43.9668 25.22 43.9668 24.6025 43.9668V54.6668C24.635 54.9002 24.4725 55.1002 24.245 55.1335C24.2125 55.1335 24.18 55.1335 24.115 55.1335H17.94C17.68 55.1335 17.55 55.0002 17.55 54.7002ZM24.635 26.4668V37.6668C25.09 37.7002 25.5125 37.7335 25.9025 37.7335H27.625C28.8925 37.7335 30.16 37.5335 31.3625 37.1335C32.4025 36.8335 33.3125 36.2002 34.0275 35.3668C34.71 34.5335 35.035 33.4002 35.035 31.9335C35.0675 30.9002 34.8075 29.8668 34.2875 28.9668C33.735 28.1002 32.955 27.4335 32.0125 27.0668C30.81 26.5668 29.51 26.3668 28.1775 26.4002C27.3325 26.4002 26.585 26.4002 25.9675 26.4335C25.3175 26.4002 24.8625 26.4335 24.635 26.4668Z" fill="#F2F2F2"/>
<path d="M62.4 35.6334C61.425 35.1001 60.385 34.7334 59.28 34.5001C58.0775 34.2334 56.875 34.0668 55.64 34.0668C54.99 34.0334 54.3075 34.1334 53.69 34.3001C53.2675 34.4001 52.91 34.6334 52.6825 34.9668C52.52 35.2334 52.4225 35.5668 52.4225 35.8668C52.4225 36.1668 52.5525 36.4668 52.7475 36.7334C53.04 37.1001 53.43 37.4001 53.8525 37.6334C54.6 38.0334 55.38 38.4001 56.16 38.7334C57.915 39.3334 59.605 40.1668 61.165 41.1668C62.2375 41.8668 63.115 42.8001 63.7325 43.9334C64.2525 45.0001 64.5125 46.1668 64.48 47.3668C64.5125 48.9334 64.0575 50.5001 63.2125 51.8001C62.3025 53.1334 61.035 54.1668 59.5725 54.7668C57.98 55.4668 56.03 55.8334 53.69 55.8334C52.195 55.8334 50.7325 55.7001 49.27 55.4001C48.1325 55.2001 46.995 54.8334 45.955 54.3334C45.7275 54.2001 45.565 53.9668 45.5975 53.7001V47.9001C45.5975 47.8001 45.63 47.6668 45.7275 47.6001C45.825 47.5334 45.9225 47.5668 46.02 47.6334C47.2875 48.4001 48.62 48.9334 50.05 49.2668C51.285 49.6001 52.585 49.7668 53.885 49.7668C55.12 49.7668 55.9975 49.6001 56.5825 49.3001C57.1025 49.0668 57.46 48.5001 57.46 47.9001C57.46 47.4334 57.2 47.0001 56.68 46.5668C56.16 46.1334 55.0875 45.6334 53.495 45.0001C51.8375 44.4001 50.31 43.6001 48.88 42.6001C47.8725 41.8668 47.0275 40.9001 46.41 39.7668C45.89 38.7001 45.63 37.5334 45.6625 36.3668C45.6625 34.9334 46.0525 33.5668 46.7675 32.3334C47.58 31.0001 48.7825 29.9334 50.18 29.2668C51.7075 28.4668 53.625 28.1001 55.9325 28.1001C57.265 28.1001 58.63 28.2001 59.9625 28.4001C60.9375 28.5334 61.88 28.8001 62.7575 29.1668C62.8875 29.2001 63.0175 29.3334 63.0825 29.4668C63.115 29.6001 63.1475 29.7334 63.1475 29.8668V35.3001C63.1475 35.4334 63.0825 35.5668 62.985 35.6334C62.6925 35.7001 62.53 35.7001 62.4 35.6334Z" fill="#F2F2F2"/>
</g>
<defs>
<clipPath id="clip0_3104_1444">
<rect width="78" height="78" fill="white"/>
</clipPath>
</defs>
</svg>
