<svg width="94" height="94" viewBox="0 0 94 94" fill="none" xmlns="http://www.w3.org/2000/svg">
<path d="M64.625 5.875H29.375C27.0378 5.875 24.7963 6.80346 23.1436 8.45612C21.491 10.1088 20.5625 12.3503 20.5625 14.6875V79.3125C20.5625 81.6497 21.491 83.8912 23.1436 85.5439C24.7963 87.1965 27.0378 88.125 29.375 88.125H64.625C66.9622 88.125 69.2037 87.1965 70.8564 85.5439C72.509 83.8912 73.4375 81.6497 73.4375 79.3125V14.6875C73.4375 12.3503 72.509 10.1088 70.8564 8.45612C69.2037 6.80346 66.9622 5.875 64.625 5.875ZM26.4375 23.5H67.5625V70.5H26.4375V23.5ZM29.375 11.75H64.625C65.4041 11.75 66.1512 12.0595 66.7021 12.6104C67.253 13.1613 67.5625 13.9084 67.5625 14.6875V17.625H26.4375V14.6875C26.4375 13.9084 26.747 13.1613 27.2979 12.6104C27.8488 12.0595 28.5959 11.75 29.375 11.75ZM64.625 82.25H29.375C28.5959 82.25 27.8488 81.9405 27.2979 81.3896C26.747 80.8387 26.4375 80.0916 26.4375 79.3125V76.375H67.5625V79.3125C67.5625 80.0916 67.253 80.8387 66.7021 81.3896C66.1512 81.9405 65.4041 82.25 64.625 82.25Z" fill="black"/>
</svg>
