<svg width="94" height="94" viewBox="0 0 94 94" fill="none" xmlns="http://www.w3.org/2000/svg">
<path d="M47 8.8125C39.4472 8.8125 32.0641 11.0522 25.7842 15.2483C19.5043 19.4444 14.6097 25.4084 11.7194 32.3863C8.82905 39.3641 8.07281 47.0424 9.54628 54.45C11.0198 61.8577 14.6568 68.662 19.9974 74.0026C25.338 79.3433 32.1424 82.9803 39.55 84.4537C46.9577 85.9272 54.6359 85.171 61.6137 82.2806C68.5916 79.3903 74.5557 74.4957 78.7518 68.2158C82.9479 61.9359 85.1875 54.5528 85.1875 47C85.1768 36.8753 81.1501 27.1684 73.9908 20.0092C66.8316 12.8499 57.1247 8.82319 47 8.8125ZM47 79.3125C40.6092 79.3125 34.3619 77.4174 29.0482 73.8669C23.7344 70.3163 19.5928 65.2698 17.1472 59.3655C14.7015 53.4611 14.0616 46.9642 15.3084 40.6961C16.5552 34.4281 19.6326 28.6706 24.1516 24.1516C28.6706 19.6326 34.4282 16.5552 40.6962 15.3084C46.9642 14.0616 53.4611 14.7015 59.3655 17.1471C65.2698 19.5928 70.3163 23.7344 73.8669 29.0481C77.4174 34.3619 79.3125 40.6092 79.3125 47C79.3028 55.5668 75.8953 63.78 69.8377 69.8377C63.78 75.8953 55.5668 79.3028 47 79.3125ZM29.375 39.6562C29.375 38.7848 29.6334 37.9329 30.1176 37.2083C30.6018 36.4837 31.2899 35.9189 32.0951 35.5854C32.9002 35.2519 33.7862 35.1646 34.6409 35.3347C35.4956 35.5047 36.2807 35.9243 36.897 36.5406C37.5132 37.1568 37.9328 37.9419 38.1029 38.7966C38.2729 39.6514 38.1856 40.5373 37.8521 41.3424C37.5186 42.1476 36.9539 42.8358 36.2292 43.3199C35.5046 43.8041 34.6527 44.0625 33.7813 44.0625C32.6127 44.0625 31.4919 43.5983 30.6656 42.7719C29.8392 41.9456 29.375 40.8249 29.375 39.6562ZM64.625 39.6562C64.625 40.5277 64.3666 41.3796 63.8824 42.1042C63.3983 42.8288 62.7101 43.3936 61.905 43.7271C61.0998 44.0606 60.2139 44.1479 59.3591 43.9778C58.5044 43.8078 57.7193 43.3882 57.1031 42.7719C56.4869 42.1557 56.0672 41.3706 55.8972 40.5159C55.7272 39.6611 55.8144 38.7752 56.1479 37.9701C56.4814 37.1649 57.0462 36.4768 57.7708 35.9926C58.4954 35.5084 59.3473 35.25 60.2188 35.25C61.3874 35.25 62.5081 35.7142 63.3345 36.5406C64.1608 37.3669 64.625 38.4876 64.625 39.6562ZM64.2321 57.2812C60.4538 63.8135 54.1712 67.5625 47 67.5625C39.8288 67.5625 33.5499 63.8172 29.7716 57.2812C29.559 56.9469 29.4163 56.573 29.352 56.1821C29.2877 55.7912 29.3032 55.3913 29.3974 55.0065C29.4917 54.6217 29.6628 54.2599 29.9005 53.943C30.1382 53.626 30.4375 53.3604 30.7805 53.1622C31.1235 52.9639 31.5031 52.8371 31.8964 52.7893C32.2897 52.7415 32.6885 52.7738 33.069 52.8842C33.4495 52.9946 33.8037 53.1808 34.1104 53.4316C34.4171 53.6824 34.6698 53.9927 34.8535 54.3438C37.5963 59.0841 41.9071 61.6875 47 61.6875C52.0929 61.6875 56.4037 59.0805 59.1429 54.3438C59.5324 53.6689 60.1741 53.1764 60.9268 52.9746C61.6794 52.7729 62.4814 52.8784 63.1563 53.2679C63.8311 53.6574 64.3236 54.2991 64.5254 55.0518C64.7272 55.8044 64.6217 56.6064 64.2321 57.2812Z" fill="black"/>
</svg>
