<svg width="94" height="94" viewBox="0 0 94 94" fill="none" xmlns="http://www.w3.org/2000/svg">
<path d="M43.0528 57.9864C46.9898 55.3654 49.9788 51.547 51.5778 47.0958C53.1768 42.6446 53.3009 37.7971 51.9318 33.2699C50.5626 28.7428 47.7729 24.7764 43.9752 21.9573C40.1775 19.1383 35.5734 17.6162 30.8438 17.6162C26.1141 17.6162 21.51 19.1383 17.7123 21.9573C13.9146 24.7764 11.1249 28.7428 9.7558 33.2699C8.38667 37.7971 8.51079 42.6446 10.1098 47.0958C11.7088 51.547 14.6978 55.3654 18.6348 57.9864C11.5132 60.6112 5.43112 65.4683 1.2962 71.833C1.07888 72.156 0.927936 72.519 0.852129 72.9008C0.776323 73.2827 0.777172 73.6758 0.854626 74.0573C0.932081 74.4388 1.0846 74.8011 1.30331 75.1232C1.52201 75.4452 1.80256 75.7206 2.12862 75.9333C2.45469 76.1459 2.81978 76.2917 3.20267 76.362C3.58556 76.4324 3.97861 76.4259 4.35897 76.343C4.73934 76.2601 5.09943 76.1024 5.41832 75.8791C5.7372 75.6558 6.00853 75.3713 6.21651 75.0423C8.88373 70.94 12.5334 67.569 16.8342 65.2353C21.135 62.9017 25.9507 61.6794 30.8438 61.6794C35.7369 61.6794 40.5525 62.9017 44.8533 65.2353C49.1541 67.569 52.8038 70.94 55.4711 75.0423C55.9019 75.6826 56.5674 76.1277 57.3238 76.2812C58.0802 76.4348 58.8666 76.2845 59.513 75.8629C60.1595 75.4412 60.614 74.7821 60.7784 74.028C60.9427 73.2739 60.8037 72.4855 60.3914 71.833C56.2564 65.4683 50.1744 60.6112 43.0528 57.9864ZM14.6875 39.6564C14.6875 36.461 15.6351 33.3374 17.4103 30.6805C19.1856 28.0236 21.7089 25.9528 24.661 24.73C27.6132 23.5071 30.8617 23.1872 33.9957 23.8106C37.1297 24.434 40.0085 25.9727 42.268 28.2322C44.5275 30.4917 46.0662 33.3705 46.6896 36.5045C47.313 39.6385 46.993 42.887 45.7702 45.8391C44.5474 48.7913 42.4766 51.3146 39.8197 53.0898C37.1628 54.8651 34.0392 55.8127 30.8438 55.8127C26.5604 55.8078 22.4538 54.1041 19.425 51.0752C16.3961 48.0464 14.6924 43.9398 14.6875 39.6564ZM91.8483 75.8978C91.1958 76.3233 90.401 76.4722 89.6388 76.3118C88.8765 76.1513 88.2092 75.6947 87.7836 75.0423C85.1195 70.9375 81.4703 67.5651 77.1686 65.2324C72.8669 62.8997 68.0497 61.6811 63.1563 61.6877C62.3772 61.6877 61.63 61.3782 61.0792 60.8273C60.5283 60.2764 60.2188 59.5292 60.2188 58.7502C60.2188 57.9711 60.5283 57.2239 61.0792 56.673C61.63 56.1221 62.3772 55.8127 63.1563 55.8127C65.5355 55.8104 67.8849 55.2827 70.0366 54.2672C72.1883 53.2517 74.0891 51.7736 75.6033 49.9383C77.1175 48.103 78.2076 45.956 78.7958 43.6506C79.384 41.3452 79.4557 38.9383 79.0059 36.6019C78.5561 34.2656 77.5958 32.0574 76.1937 30.1352C74.7915 28.213 72.9821 26.6242 70.8948 25.4824C68.8074 24.3405 66.4936 23.6737 64.1187 23.5298C61.7438 23.3858 59.3665 23.7681 57.1564 24.6494C56.7961 24.8052 56.4082 24.8872 56.0157 24.8905C55.6231 24.8938 55.2339 24.8184 54.871 24.6688C54.508 24.5191 54.1788 24.2982 53.9027 24.0192C53.6266 23.7401 53.4092 23.4086 53.2634 23.0441C53.1176 22.6796 53.0464 22.2896 53.0539 21.8971C53.0614 21.5046 53.1474 21.1176 53.307 20.7589C53.4666 20.4003 53.6965 20.0772 53.983 19.8089C54.2696 19.5406 54.607 19.3324 54.9753 19.1967C60.0332 17.1796 65.6589 17.107 70.7671 18.9929C75.8753 20.8789 80.1042 24.5898 82.6378 29.4097C85.1714 34.2297 85.8303 39.8171 84.4873 45.0941C83.1443 50.3712 79.8947 54.964 75.3653 57.9864C82.4869 60.6112 88.5689 65.4683 92.7039 71.833C93.1293 72.4855 93.2782 73.2803 93.1178 74.0426C92.9574 74.8049 92.5007 75.4722 91.8483 75.8978Z" fill="black"/>
</svg>
